<?xml version="1.0" encoding="UTF-8"?> <!-- Generator: Adobe Illustrator 23.0.0, SVG Export Plug-In . SVG Version: 6.00 Build 0) --> <svg xmlns="http://www.w3.org/2000/svg" xmlns:xlink="http://www.w3.org/1999/xlink" version="1.1" id="Camada_1" x="0px" y="0px" viewBox="0 0 474.5 56.4" style="enable-background:new 0 0 474.5 56.4;" xml:space="preserve"> <style type="text/css"> .st0{fill:#FFFFFF;} </style> <g> <path class="st0" d="M321,6.3c-5.4-0.2-10.9-0.2-16.3-0.2l-0.1,21.1c0,10,0.1,19.4,0.2,28.1h-8.2c0.1-4.1,0.2-12.8,0.2-26.1 c0-11,0-18.7-0.1-23c-5.4,0-10.9,0.1-16.3,0.2V0.8H321V6.3z"></path> <path class="st0" d="M355.5,49.8c4.5-0.1,7.5-0.2,9.1-0.3v5.8h-36.2c0.1-1.1,0.2-10.2,0.2-27.2c0-17-0.1-26.1-0.2-27.2h35v5.7 c-5.3-0.2-13.6-0.3-24.8-0.3c-1.2,0-1.9,0.3-2.1,1c-0.1,3-0.1,8.7-0.1,17.3h3.8c3.9,0,9.8-0.1,17.8-0.3v5.9 c-4.8-0.2-12-0.2-21.6-0.2c0,9.7,0,16.2,0.1,19.4c1.2,0.4,3.4,0.5,6.5,0.5C346.8,49.9,351,49.8,355.5,49.8"></path> <path class="st0" d="M372.5,13.6c2.3-4.2,5.5-7.6,9.6-10c4.1-2.4,8.6-3.7,13.6-3.7c3.7,0,7.2,0.6,10.5,1.7c3.3,1.1,6.1,2.7,8.4,4.7 c2.3,2,3.8,4.2,4.4,6.6c0.1,1.2-0.1,2.2-0.7,3c-0.6,0.8-1.4,1.3-2.6,1.6c-0.7,0.2-1.6,0.2-2.5,0.2c-0.8,0-1.3,0-1.6-0.1 c-0.7-2.5-2-4.8-3.8-6.8c-1.8-2.1-3.9-3.7-6.3-5c-2.4-1.2-4.9-1.9-7.3-1.9c-3.2,0-6.1,0.9-8.6,2.8c-2.5,1.8-4.5,4.4-6,7.7 c-1.5,3.3-2.2,7.1-2.2,11.3c0,4.8,0.9,9,2.8,12.8c1.9,3.8,4.4,6.8,7.7,8.9c3.3,2.2,6.9,3.2,11,3.2c4,0,7.7-1.1,11-3.3 c3.3-2.2,5.6-5.1,7-8.6c0.8,0.1,1.5,0.3,2,0.7c0.5,0.4,0.7,1,0.7,1.8c-0.6,2.7-1.9,5.2-4,7.4c-2.1,2.2-4.8,4-8.1,5.3 c-3.3,1.3-6.9,2-10.9,2c-5.1,0-9.8-1.2-14-3.7c-4.2-2.5-7.5-5.9-10-10.3c-2.4-4.4-3.6-9.2-3.6-14.5C369,22.5,370.2,17.8,372.5,13.6 "></path> <path class="st0" d="M429.4,55.2c0.2-4,0.2-13.9,0.2-29.6c0-13-0.1-21.2-0.2-24.8h8.2V6v18.4c3.1,0.1,7.9,0.1,14.4,0.1 c6.6,0,11.4,0,14.5-0.1l-0.1-23.6h8.2c-0.1,5.1-0.2,14.1-0.2,27.2s0.1,22.1,0.2,27.2h-8.2c0.1-1.8,0.1-7.2,0.1-16V30 c-6.2-0.1-11-0.2-14.5-0.2c-3.4,0-8.2,0.1-14.4,0.2v10.4v14.8H429.4z"></path> <path class="st0" d="M82.5,33.8c3.4,0,6.4-0.6,9-1.8c2.6-1.2,4.6-2.9,6-5.1c1.4-2.2,2.1-4.8,2.1-7.7c0-3.2-0.8-5.9-2.3-8.3 c-1.5-2.4-3.7-4.2-6.5-5.5c-2.8-1.3-6-1.9-9.7-1.9h-8c-1,0-1.8,0.1-2.4,0.2c-0.6,0.1-1,0.4-1.2,0.9c-0.1,3.9-0.1,13.6-0.1,28.8 c1.3,0.3,3.6,0.5,6.8,0.5H82.5z M93.1,3.1c3.3,1.5,5.8,3.6,7.6,6.3c1.8,2.7,2.7,5.8,2.7,9.3c0,3.5-0.9,6.6-2.6,9.3 c-1.7,2.7-4.2,4.7-7.3,6.2c-3.2,1.5-6.8,2.2-11,2.2H69.5c0,10.1,0.1,16.4,0.2,18.9h-3.7c0.1-1.7,0.2-11,0.2-28 c0-16.7-0.1-25.5-0.2-26.4h15.9C86.1,0.8,89.9,1.6,93.1,3.1"></path> <path class="st0" d="M143.7,3.5c-7.9-0.1-13.8-0.2-17.7-0.2l-0.1,26.1l0.1,25.7h-3.7c0.1-5.3,0.2-13.9,0.2-25.7 c0-12-0.1-20.7-0.2-26.1c-3.9,0-9.8,0.1-17.7,0.2V0.8h39.1V3.5z"></path> <path class="st0" d="M151.9,55.2c0.1-1.2,0.2-10.4,0.2-27.6c0-17.1-0.1-26-0.2-26.8h3.7c-0.1,1.8-0.2,10.7-0.2,26.9 c0,16,0,25.1,0.2,27.5H151.9z"></path> <path class="st0" d="M168.8,55.2l5-54.4h2.7c0.7,0,1.2,0.3,1.6,0.9l18.6,39l18.7-39.1c0.3-0.6,0.6-0.9,1.2-0.9h2.7l5,54.4h-3.7 L216,5.9l-18.2,38.5c-0.2,0.3-0.4,0.5-0.6,0.7c-0.3,0.2-0.5,0.2-0.7,0.2c-0.7,0-1.1-0.3-1.4-0.9L176.4,5.6l-4.6,49.7H168.8z"></path> <path class="st0" d="M267.4,36.7c-3.8-8.9-6.1-14.2-6.9-15.9c-3.1-6.8-5.2-11.7-6.5-14.7c-3.1,7.5-6.1,14.7-9.1,21.6l-3.8,9H267.4z M267.7,28.9c5.6,12.6,9.5,21.4,11.8,26.4h-4.2c-1.2-2.7-2.5-5.8-4-9.4l-2.9-6.6h-28.3c-0.5,1.1-1,2.3-1.6,3.6 c-0.6,1.3-1.2,2.8-1.8,4.4c-1.8,4.3-2.9,7-3.3,8h-3.3c8.8-20.5,16.3-37.9,22.3-52.2c-0.1,0-0.1-0.1-0.2-0.1 c-0.5-0.1-0.8-0.3-1.1-0.7c-0.3-0.4-0.4-0.9-0.3-1.4h3.8c0.5,0,0.9,0.2,1,0.5C258.8,8.6,262.9,17.8,267.7,28.9"></path> <path class="st0" d="M51,13.8c-2.4-4.3-5.6-7.6-9.8-10.1C37.1,1.3,32.5,0,27.4,0c-5.2,0-9.8,1.2-14,3.6c-4.1,2.4-7.3,5.7-9.7,10 c-2.3,4.2-3.5,9-3.5,14.3c0,5.2,1.2,9.9,3.6,14.2c1,1.8,2.1,3.4,3.4,4.8c0.5-1.1,1.3-2,2.4-2.5c-1-1.3-1.8-2.6-2.6-4.1 c-2-4.1-3.1-8.5-3.1-13.4c0-4.6,1-8.7,2.9-12.4c1.9-3.7,4.7-6.6,8.2-8.7c3.5-2.1,7.5-3.1,11.9-3.1c4.6,0,8.6,1.2,12.2,3.5 c3.6,2.3,6.4,5.5,8.4,9.5c2,4,3,8.5,3,13.5c0,4.5-1,8.6-2.9,12.3c-1.9,3.7-4.6,6.6-8.1,8.8c-3.4,2.2-7.4,3.3-11.8,3.3 c-4.2,0-8-1-11.4-3c-0.3,1-0.9,1.8-1.8,2.4c3.9,2.1,8.2,3.2,13,3.2c5.1,0,9.7-1.2,13.8-3.7c4.1-2.5,7.3-5.9,9.6-10.1 c2.3-4.3,3.5-8.9,3.5-14.1C54.6,22.8,53.4,18,51,13.8"></path> <path class="st0" d="M13.7,48.8c0,1-0.8,1.9-1.9,1.9c-1,0-1.8-0.8-1.8-1.9c0-1,0.8-1.9,1.8-1.9C12.9,47,13.7,47.8,13.7,48.8"></path> </g> </svg> 